<?xml version="1.0" encoding="UTF-8"?>
<svg width="32px" height="32px" viewBox="0 0 32 32" version="1.1" xmlns="http://www.w3.org/2000/svg" xmlns:xlink="http://www.w3.org/1999/xlink">
    <title>Icon/32/Info</title>
    <g id="Icon/32/Info" stroke="none" stroke-width="1" fill="none" fill-rule="evenodd">
        <path d="M16,2 C8.3,2 2,8.3 2,16 C2,23.7 8.3,30 16,30 C23.7,30 30,23.7 30,16 C30,8.3 23.7,2 16,2 Z M16,26 C10.5,26 6,21.5 6,16 C6,10.5 10.5,6 16,6 C21.5,6 26,10.5 26,16 C26,21.5 21.5,26 16,26 Z M15,11 L17,11 L17,9 L15,9 L15,11 Z M15,23 L17,23 L17,13 L15,13 L15,23 Z" id="Shape" fill="#000000"></path>
    </g>
</svg>